<?xml version="1.0" encoding="UTF-8" standalone="no"?><svg xmlns="http://www.w3.org/2000/svg" xmlns:xlink="http://www.w3.org/1999/xlink" contentScriptType="application/ecmascript" contentStyleType="text/css" height="750px" preserveAspectRatio="none" style="width:1631px;height:750px;background:#FFFFFF;" version="1.1" viewBox="0 0 1631 750" width="1631px" zoomAndPan="magnify"><defs><filter height="300%" id="fcj355x1zconu" width="300%" x="-1" y="-1"><feGaussianBlur result="blurOut" stdDeviation="2.0"/><feColorMatrix in="blurOut" result="blurOut2" type="matrix" values="0 0 0 0 0 0 0 0 0 0 0 0 0 0 0 0 0 0 .4 0"/><feOffset dx="4.0" dy="4.0" in="blurOut2" result="blurOut3"/><feBlend in="SourceGraphic" in2="blurOut3" mode="normal"/></filter></defs><g><!--MD5=[9dd4eaa2771a2ff8dbee15cc1e732cab]
class Patient--><rect codeLine="1" fill="#FEFECE" filter="url(#fcj355x1zconu)" height="186.3594" id="Patient" style="stroke:#A80036;stroke-width:1.5;" width="112" x="612.5" y="115"/><ellipse cx="646.4" cy="131" fill="#ADD1B2" rx="11" ry="11" style="stroke:#A80036;stroke-width:1.0;"/><path d="M645.2594,131.7969 L645.2594,134.2969 L649.5875,134.2969 L649.5875,133.375 Q649.5875,132.7656 649.8219,132.5 Q650.0719,132.2344 650.4469,132.2344 Q650.8219,132.2344 651.0563,132.5 Q651.2906,132.7656 651.2906,133.375 L651.2906,136 L643.2906,136 Q642.6656,136 642.4,135.7656 Q642.15,135.5313 642.15,135.1406 Q642.15,134.7656 642.4156,134.5313 Q642.6813,134.2969 643.2906,134.2969 L643.5563,134.2969 L643.5563,127.6406 L643.2906,127.6406 Q642.6656,127.6406 642.4,127.4063 Q642.15,127.1719 642.15,126.7813 Q642.15,126.4063 642.4,126.1719 Q642.6656,125.9375 643.2906,125.9375 L650.9156,125.9375 L650.9156,128.5313 Q650.9156,129.1406 650.6813,129.4063 Q650.4625,129.6563 650.0719,129.6563 Q649.6969,129.6563 649.4625,129.4063 Q649.2281,129.1406 649.2281,128.5313 L649.2281,127.6406 L645.2594,127.6406 L645.2594,130.0938 L646.7438,130.0938 Q646.7438,129.4375 646.8688,129.25 Q647.1344,128.8438 647.6031,128.8438 Q647.9781,128.8438 648.2125,129.1094 Q648.4469,129.3594 648.4469,129.9688 L648.4469,131.9375 Q648.4469,132.4844 648.3219,132.6719 Q648.0563,133.0625 647.6031,133.0625 Q647.1344,133.0625 646.8688,132.6563 Q646.7438,132.4688 646.7438,131.7969 L645.2594,131.7969 Z " fill="#000000"/><text fill="#000000" font-family="sans-serif" font-size="12" lengthAdjust="spacing" textLength="38" x="664.6" y="135.9102">Patient</text><line style="stroke:#A80036;stroke-width:1.5;" x1="613.5" x2="723.5" y1="147" y2="147"/><text fill="#000000" font-family="sans-serif" font-size="11" lengthAdjust="spacing" textLength="95" x="618.5" y="162.4189">patientID: String key</text><text fill="#000000" font-family="sans-serif" font-size="11" lengthAdjust="spacing" textLength="26" x="618.5" y="176.2549">name</text><text fill="#000000" font-family="sans-serif" font-size="11" lengthAdjust="spacing" textLength="55" x="618.5" y="190.0908">dateOfBirth</text><text fill="#000000" font-family="sans-serif" font-size="11" lengthAdjust="spacing" textLength="73" x="618.5" y="203.9268">educationLevel</text><text fill="#000000" font-family="sans-serif" font-size="11" lengthAdjust="spacing" textLength="62" x="618.5" y="217.7627">maritalStatus</text><text fill="#000000" font-family="sans-serif" font-size="11" lengthAdjust="spacing" textLength="18" x="618.5" y="231.5986">sex</text><text fill="#000000" font-family="sans-serif" font-size="11" lengthAdjust="spacing" textLength="22" x="618.5" y="245.4346">race</text><text fill="#000000" font-family="sans-serif" font-size="11" lengthAdjust="spacing" textLength="100" x="618.5" y="259.2705">countryOfResidence</text><text fill="#000000" font-family="sans-serif" font-size="11" lengthAdjust="spacing" textLength="39" x="618.5" y="273.1064">smoking</text><text fill="#000000" font-family="sans-serif" font-size="11" lengthAdjust="spacing" textLength="63" x="618.5" y="286.9424">smokingType</text><line style="stroke:#A80036;stroke-width:1.5;" x1="613.5" x2="723.5" y1="293.3594" y2="293.3594"/><!--MD5=[bd2b9be34d80e7fc6981e2709ba067d7]
class CenterOfExcellence--><rect codeLine="13" fill="#FEFECE" filter="url(#fcj355x1zconu)" height="75.6719" id="CenterOfExcellence" style="stroke:#A80036;stroke-width:1.5;" width="140" x="759.5" y="170"/><ellipse cx="774.5" cy="186" fill="#ADD1B2" rx="11" ry="11" style="stroke:#A80036;stroke-width:1.0;"/><path d="M773.3594,186.7969 L773.3594,189.2969 L777.6875,189.2969 L777.6875,188.375 Q777.6875,187.7656 777.9219,187.5 Q778.1719,187.2344 778.5469,187.2344 Q778.9219,187.2344 779.1563,187.5 Q779.3906,187.7656 779.3906,188.375 L779.3906,191 L771.3906,191 Q770.7656,191 770.5,190.7656 Q770.25,190.5313 770.25,190.1406 Q770.25,189.7656 770.5156,189.5313 Q770.7813,189.2969 771.3906,189.2969 L771.6563,189.2969 L771.6563,182.6406 L771.3906,182.6406 Q770.7656,182.6406 770.5,182.4063 Q770.25,182.1719 770.25,181.7813 Q770.25,181.4063 770.5,181.1719 Q770.7656,180.9375 771.3906,180.9375 L779.0156,180.9375 L779.0156,183.5313 Q779.0156,184.1406 778.7813,184.4063 Q778.5625,184.6563 778.1719,184.6563 Q777.7969,184.6563 777.5625,184.4063 Q777.3281,184.1406 777.3281,183.5313 L777.3281,182.6406 L773.3594,182.6406 L773.3594,185.0938 L774.8438,185.0938 Q774.8438,184.4375 774.9688,184.25 Q775.2344,183.8438 775.7031,183.8438 Q776.0781,183.8438 776.3125,184.1094 Q776.5469,184.3594 776.5469,184.9688 L776.5469,186.9375 Q776.5469,187.4844 776.4219,187.6719 Q776.1563,188.0625 775.7031,188.0625 Q775.2344,188.0625 774.9688,187.6563 Q774.8438,187.4688 774.8438,186.7969 L773.3594,186.7969 Z " fill="#000000"/><text fill="#000000" font-family="sans-serif" font-size="12" lengthAdjust="spacing" textLength="108" x="788.5" y="190.9102">CenterOfExcellence</text><line style="stroke:#A80036;stroke-width:1.5;" x1="760.5" x2="898.5" y1="202" y2="202"/><text fill="#000000" font-family="sans-serif" font-size="11" lengthAdjust="spacing" textLength="78" x="765.5" y="217.4189">coeID:String key</text><text fill="#000000" font-family="sans-serif" font-size="11" lengthAdjust="spacing" textLength="60" x="765.5" y="231.2549">name: String</text><line style="stroke:#A80036;stroke-width:1.5;" x1="760.5" x2="898.5" y1="237.6719" y2="237.6719"/><!--MD5=[5b959c0aa34df998f032eeaa70523fee]
class PreliminaryPatientData--><rect codeLine="17" fill="#FEFECE" filter="url(#fcj355x1zconu)" height="131.0156" id="PreliminaryPatientData" style="stroke:#A80036;stroke-width:1.5;" width="158" x="934.5" y="142.5"/><ellipse cx="949.5" cy="158.5" fill="#ADD1B2" rx="11" ry="11" style="stroke:#A80036;stroke-width:1.0;"/><path d="M948.3594,159.2969 L948.3594,161.7969 L952.6875,161.7969 L952.6875,160.875 Q952.6875,160.2656 952.9219,160 Q953.1719,159.7344 953.5469,159.7344 Q953.9219,159.7344 954.1563,160 Q954.3906,160.2656 954.3906,160.875 L954.3906,163.5 L946.3906,163.5 Q945.7656,163.5 945.5,163.2656 Q945.25,163.0313 945.25,162.6406 Q945.25,162.2656 945.5156,162.0313 Q945.7813,161.7969 946.3906,161.7969 L946.6563,161.7969 L946.6563,155.1406 L946.3906,155.1406 Q945.7656,155.1406 945.5,154.9063 Q945.25,154.6719 945.25,154.2813 Q945.25,153.9063 945.5,153.6719 Q945.7656,153.4375 946.3906,153.4375 L954.0156,153.4375 L954.0156,156.0313 Q954.0156,156.6406 953.7813,156.9063 Q953.5625,157.1563 953.1719,157.1563 Q952.7969,157.1563 952.5625,156.9063 Q952.3281,156.6406 952.3281,156.0313 L952.3281,155.1406 L948.3594,155.1406 L948.3594,157.5938 L949.8438,157.5938 Q949.8438,156.9375 949.9688,156.75 Q950.2344,156.3438 950.7031,156.3438 Q951.0781,156.3438 951.3125,156.6094 Q951.5469,156.8594 951.5469,157.4688 L951.5469,159.4375 Q951.5469,159.9844 951.4219,160.1719 Q951.1563,160.5625 950.7031,160.5625 Q950.2344,160.5625 949.9688,160.1563 Q949.8438,159.9688 949.8438,159.2969 L948.3594,159.2969 Z " fill="#000000"/><text fill="#000000" font-family="sans-serif" font-size="12" lengthAdjust="spacing" textLength="126" x="963.5" y="163.4102">PreliminaryPatientData</text><line style="stroke:#A80036;stroke-width:1.5;" x1="935.5" x2="1091.5" y1="174.5" y2="174.5"/><text fill="#000000" font-family="sans-serif" font-size="11" lengthAdjust="spacing" textLength="78" x="940.5" y="189.9189">coeID:String key</text><text fill="#000000" font-family="sans-serif" font-size="11" lengthAdjust="spacing" textLength="95" x="940.5" y="203.7549">patientID: String key</text><text fill="#000000" font-family="sans-serif" font-size="11" lengthAdjust="spacing" textLength="144" x="940.5" y="217.5908">informedConsent: StringArray</text><text fill="#000000" font-family="sans-serif" font-size="11" lengthAdjust="spacing" textLength="116" x="940.5" y="231.4268">dateOfFirstContact Date</text><text fill="#000000" font-family="sans-serif" font-size="11" lengthAdjust="spacing" textLength="115" x="940.5" y="245.2627">managedCancerPhases</text><text fill="#000000" font-family="sans-serif" font-size="11" lengthAdjust="spacing" textLength="81" x="940.5" y="259.0986">instrumentStatus</text><line style="stroke:#A80036;stroke-width:1.5;" x1="935.5" x2="1091.5" y1="265.5156" y2="265.5156"/><!--MD5=[3dd68e278a781a6e64037a03460e9325]
class PreviousCancer--><rect codeLine="26" fill="#FEFECE" filter="url(#fcj355x1zconu)" height="75.6719" id="PreviousCancer" style="stroke:#A80036;stroke-width:1.5;" width="132" x="154.5" y="361"/><ellipse cx="174.9" cy="377" fill="#ADD1B2" rx="11" ry="11" style="stroke:#A80036;stroke-width:1.0;"/><path d="M173.7594,377.7969 L173.7594,380.2969 L178.0875,380.2969 L178.0875,379.375 Q178.0875,378.7656 178.3219,378.5 Q178.5719,378.2344 178.9469,378.2344 Q179.3219,378.2344 179.5563,378.5 Q179.7906,378.7656 179.7906,379.375 L179.7906,382 L171.7906,382 Q171.1656,382 170.9,381.7656 Q170.65,381.5313 170.65,381.1406 Q170.65,380.7656 170.9156,380.5313 Q171.1813,380.2969 171.7906,380.2969 L172.0563,380.2969 L172.0563,373.6406 L171.7906,373.6406 Q171.1656,373.6406 170.9,373.4063 Q170.65,373.1719 170.65,372.7813 Q170.65,372.4063 170.9,372.1719 Q171.1656,371.9375 171.7906,371.9375 L179.4156,371.9375 L179.4156,374.5313 Q179.4156,375.1406 179.1813,375.4063 Q178.9625,375.6563 178.5719,375.6563 Q178.1969,375.6563 177.9625,375.4063 Q177.7281,375.1406 177.7281,374.5313 L177.7281,373.6406 L173.7594,373.6406 L173.7594,376.0938 L175.2438,376.0938 Q175.2438,375.4375 175.3688,375.25 Q175.6344,374.8438 176.1031,374.8438 Q176.4781,374.8438 176.7125,375.1094 Q176.9469,375.3594 176.9469,375.9688 L176.9469,377.9375 Q176.9469,378.4844 176.8219,378.6719 Q176.5563,379.0625 176.1031,379.0625 Q175.6344,379.0625 175.3688,378.6563 Q175.2438,378.4688 175.2438,377.7969 L173.7594,377.7969 Z " fill="#000000"/><text fill="#000000" font-family="sans-serif" font-size="12" lengthAdjust="spacing" textLength="88" x="190.1" y="381.9102">PreviousCancer</text><line style="stroke:#A80036;stroke-width:1.5;" x1="155.5" x2="285.5" y1="393" y2="393"/><text fill="#000000" font-family="sans-serif" font-size="11" lengthAdjust="spacing" textLength="95" x="160.5" y="408.4189">patientID: String key</text><text fill="#000000" font-family="sans-serif" font-size="11" lengthAdjust="spacing" textLength="120" x="160.5" y="422.2549">prevCancerID: String key</text><line style="stroke:#A80036;stroke-width:1.5;" x1="155.5" x2="285.5" y1="428.6719" y2="428.6719"/><!--MD5=[3d044a1e41deed2a00784446247940fc]
class PreviousGeneticSyndrome--><rect codeLine="30" fill="#FEFECE" filter="url(#fcj355x1zconu)" height="75.6719" id="PreviousGeneticSyndrome" style="stroke:#A80036;stroke-width:1.5;" width="178" x="451.5" y="361"/><ellipse cx="466.5" cy="377" fill="#ADD1B2" rx="11" ry="11" style="stroke:#A80036;stroke-width:1.0;"/><path d="M465.3594,377.7969 L465.3594,380.2969 L469.6875,380.2969 L469.6875,379.375 Q469.6875,378.7656 469.9219,378.5 Q470.1719,378.2344 470.5469,378.2344 Q470.9219,378.2344 471.1563,378.5 Q471.3906,378.7656 471.3906,379.375 L471.3906,382 L463.3906,382 Q462.7656,382 462.5,381.7656 Q462.25,381.5313 462.25,381.1406 Q462.25,380.7656 462.5156,380.5313 Q462.7813,380.2969 463.3906,380.2969 L463.6563,380.2969 L463.6563,373.6406 L463.3906,373.6406 Q462.7656,373.6406 462.5,373.4063 Q462.25,373.1719 462.25,372.7813 Q462.25,372.4063 462.5,372.1719 Q462.7656,371.9375 463.3906,371.9375 L471.0156,371.9375 L471.0156,374.5313 Q471.0156,375.1406 470.7813,375.4063 Q470.5625,375.6563 470.1719,375.6563 Q469.7969,375.6563 469.5625,375.4063 Q469.3281,375.1406 469.3281,374.5313 L469.3281,373.6406 L465.3594,373.6406 L465.3594,376.0938 L466.8438,376.0938 Q466.8438,375.4375 466.9688,375.25 Q467.2344,374.8438 467.7031,374.8438 Q468.0781,374.8438 468.3125,375.1094 Q468.5469,375.3594 468.5469,375.9688 L468.5469,377.9375 Q468.5469,378.4844 468.4219,378.6719 Q468.1563,379.0625 467.7031,379.0625 Q467.2344,379.0625 466.9688,378.6563 Q466.8438,378.4688 466.8438,377.7969 L465.3594,377.7969 Z " fill="#000000"/><text fill="#000000" font-family="sans-serif" font-size="12" lengthAdjust="spacing" textLength="146" x="480.5" y="381.9102">PreviousGeneticSyndrome</text><line style="stroke:#A80036;stroke-width:1.5;" x1="452.5" x2="628.5" y1="393" y2="393"/><text fill="#000000" font-family="sans-serif" font-size="11" lengthAdjust="spacing" textLength="95" x="457.5" y="408.4189">patientID: String key</text><text fill="#000000" font-family="sans-serif" font-size="11" lengthAdjust="spacing" textLength="154" x="457.5" y="422.2549">prevGenSyndromeID: String key</text><line style="stroke:#A80036;stroke-width:1.5;" x1="452.5" x2="628.5" y1="428.6719" y2="428.6719"/><!--MD5=[712032353306ae8aaf22b075047bd649]
class CancerUnderStudy--><rect codeLine="34" fill="#FEFECE" filter="url(#fcj355x1zconu)" height="75.6719" id="CancerUnderStudy" style="stroke:#A80036;stroke-width:1.5;" width="136" x="729.5" y="361"/><ellipse cx="744.5" cy="377" fill="#ADD1B2" rx="11" ry="11" style="stroke:#A80036;stroke-width:1.0;"/><path d="M743.3594,377.7969 L743.3594,380.2969 L747.6875,380.2969 L747.6875,379.375 Q747.6875,378.7656 747.9219,378.5 Q748.1719,378.2344 748.5469,378.2344 Q748.9219,378.2344 749.1563,378.5 Q749.3906,378.7656 749.3906,379.375 L749.3906,382 L741.3906,382 Q740.7656,382 740.5,381.7656 Q740.25,381.5313 740.25,381.1406 Q740.25,380.7656 740.5156,380.5313 Q740.7813,380.2969 741.3906,380.2969 L741.6563,380.2969 L741.6563,373.6406 L741.3906,373.6406 Q740.7656,373.6406 740.5,373.4063 Q740.25,373.1719 740.25,372.7813 Q740.25,372.4063 740.5,372.1719 Q740.7656,371.9375 741.3906,371.9375 L749.0156,371.9375 L749.0156,374.5313 Q749.0156,375.1406 748.7813,375.4063 Q748.5625,375.6563 748.1719,375.6563 Q747.7969,375.6563 747.5625,375.4063 Q747.3281,375.1406 747.3281,374.5313 L747.3281,373.6406 L743.3594,373.6406 L743.3594,376.0938 L744.8438,376.0938 Q744.8438,375.4375 744.9688,375.25 Q745.2344,374.8438 745.7031,374.8438 Q746.0781,374.8438 746.3125,375.1094 Q746.5469,375.3594 746.5469,375.9688 L746.5469,377.9375 Q746.5469,378.4844 746.4219,378.6719 Q746.1563,379.0625 745.7031,379.0625 Q745.2344,379.0625 744.9688,378.6563 Q744.8438,378.4688 744.8438,377.7969 L743.3594,377.7969 Z " fill="#000000"/><text fill="#000000" font-family="sans-serif" font-size="12" lengthAdjust="spacing" textLength="104" x="758.5" y="381.9102">CancerUnderStudy</text><line style="stroke:#A80036;stroke-width:1.5;" x1="730.5" x2="864.5" y1="393" y2="393"/><text fill="#000000" font-family="sans-serif" font-size="11" lengthAdjust="spacing" textLength="95" x="735.5" y="408.4189">patientID: String key</text><text fill="#000000" font-family="sans-serif" font-size="11" lengthAdjust="spacing" textLength="81" x="735.5" y="422.2549">cusID: String key</text><line style="stroke:#A80036;stroke-width:1.5;" x1="730.5" x2="864.5" y1="428.6719" y2="428.6719"/><!--MD5=[ac13618b1a974308c1f12eb6c57723dc]
class Event--><rect codeLine="38" fill="#FEFECE" filter="url(#fcj355x1zconu)" height="89.5078" id="Event" style="stroke:#A80036;stroke-width:1.5;" width="329" x="167" y="497"/><ellipse cx="312.25" cy="513" fill="#ADD1B2" rx="11" ry="11" style="stroke:#A80036;stroke-width:1.0;"/><path d="M311.1094,513.7969 L311.1094,516.2969 L315.4375,516.2969 L315.4375,515.375 Q315.4375,514.7656 315.6719,514.5 Q315.9219,514.2344 316.2969,514.2344 Q316.6719,514.2344 316.9063,514.5 Q317.1406,514.7656 317.1406,515.375 L317.1406,518 L309.1406,518 Q308.5156,518 308.25,517.7656 Q308,517.5313 308,517.1406 Q308,516.7656 308.2656,516.5313 Q308.5313,516.2969 309.1406,516.2969 L309.4063,516.2969 L309.4063,509.6406 L309.1406,509.6406 Q308.5156,509.6406 308.25,509.4063 Q308,509.1719 308,508.7813 Q308,508.4063 308.25,508.1719 Q308.5156,507.9375 309.1406,507.9375 L316.7656,507.9375 L316.7656,510.5313 Q316.7656,511.1406 316.5313,511.4063 Q316.3125,511.6563 315.9219,511.6563 Q315.5469,511.6563 315.3125,511.4063 Q315.0781,511.1406 315.0781,510.5313 L315.0781,509.6406 L311.1094,509.6406 L311.1094,512.0938 L312.5938,512.0938 Q312.5938,511.4375 312.7188,511.25 Q312.9844,510.8438 313.4531,510.8438 Q313.8281,510.8438 314.0625,511.1094 Q314.2969,511.3594 314.2969,511.9688 L314.2969,513.9375 Q314.2969,514.4844 314.1719,514.6719 Q313.9063,515.0625 313.4531,515.0625 Q312.9844,515.0625 312.7188,514.6563 Q312.5938,514.4688 312.5938,513.7969 L311.1094,513.7969 Z " fill="#000000"/><text fill="#000000" font-family="sans-serif" font-size="12" lengthAdjust="spacing" textLength="30" x="332.75" y="517.9102">Event</text><line style="stroke:#A80036;stroke-width:1.5;" x1="168" x2="495" y1="529" y2="529"/><text fill="#000000" font-family="sans-serif" font-size="11" lengthAdjust="spacing" textLength="95" x="173" y="544.4189">patientID: String key</text><text fill="#000000" font-family="sans-serif" font-size="11" lengthAdjust="spacing" textLength="81" x="173" y="558.2549">cusID: String key</text><text fill="#000000" font-family="sans-serif" font-size="11" lengthAdjust="spacing" textLength="317" x="173" y="572.0908">type: Codeable ' baseline, recurrence, relapse, persistent disease</text><line style="stroke:#A80036;stroke-width:1.5;" x1="168" x2="495" y1="578.5078" y2="578.5078"/><!--MD5=[f27bcd0bfaa041fdac22cb69ddc6ac63]
class Staging--><rect codeLine="44" fill="#FEFECE" filter="url(#fcj355x1zconu)" height="75.6719" id="Staging" style="stroke:#A80036;stroke-width:1.5;" width="107" x="531" y="504"/><ellipse cx="560.85" cy="520" fill="#ADD1B2" rx="11" ry="11" style="stroke:#A80036;stroke-width:1.0;"/><path d="M559.7094,520.7969 L559.7094,523.2969 L564.0375,523.2969 L564.0375,522.375 Q564.0375,521.7656 564.2719,521.5 Q564.5219,521.2344 564.8969,521.2344 Q565.2719,521.2344 565.5063,521.5 Q565.7406,521.7656 565.7406,522.375 L565.7406,525 L557.7406,525 Q557.1156,525 556.85,524.7656 Q556.6,524.5313 556.6,524.1406 Q556.6,523.7656 556.8656,523.5313 Q557.1313,523.2969 557.7406,523.2969 L558.0063,523.2969 L558.0063,516.6406 L557.7406,516.6406 Q557.1156,516.6406 556.85,516.4063 Q556.6,516.1719 556.6,515.7813 Q556.6,515.4063 556.85,515.1719 Q557.1156,514.9375 557.7406,514.9375 L565.3656,514.9375 L565.3656,517.5313 Q565.3656,518.1406 565.1313,518.4063 Q564.9125,518.6563 564.5219,518.6563 Q564.1469,518.6563 563.9125,518.4063 Q563.6781,518.1406 563.6781,517.5313 L563.6781,516.6406 L559.7094,516.6406 L559.7094,519.0938 L561.1938,519.0938 Q561.1938,518.4375 561.3188,518.25 Q561.5844,517.8438 562.0531,517.8438 Q562.4281,517.8438 562.6625,518.1094 Q562.8969,518.3594 562.8969,518.9688 L562.8969,520.9375 Q562.8969,521.4844 562.7719,521.6719 Q562.5063,522.0625 562.0531,522.0625 Q561.5844,522.0625 561.3188,521.6563 Q561.1938,521.4688 561.1938,520.7969 L559.7094,520.7969 Z " fill="#000000"/><text fill="#000000" font-family="sans-serif" font-size="12" lengthAdjust="spacing" textLength="42" x="578.15" y="524.9102">Staging</text><line style="stroke:#A80036;stroke-width:1.5;" x1="532" x2="637" y1="536" y2="536"/><text fill="#000000" font-family="sans-serif" font-size="11" lengthAdjust="spacing" textLength="95" x="537" y="551.4189">patientID: String key</text><text fill="#000000" font-family="sans-serif" font-size="11" lengthAdjust="spacing" textLength="81" x="537" y="565.2549">cusID: String key</text><line style="stroke:#A80036;stroke-width:1.5;" x1="532" x2="637" y1="571.6719" y2="571.6719"/><!--MD5=[99ced10516f6fcfe8fbbc34c34b327a4]
class ClinicalStage--><rect codeLine="48" fill="#FEFECE" filter="url(#fcj355x1zconu)" height="75.6719" id="ClinicalStage" style="stroke:#A80036;stroke-width:1.5;" width="135" x="7" y="654"/><ellipse cx="35.5" cy="670" fill="#ADD1B2" rx="11" ry="11" style="stroke:#A80036;stroke-width:1.0;"/><path d="M34.3594,670.7969 L34.3594,673.2969 L38.6875,673.2969 L38.6875,672.375 Q38.6875,671.7656 38.9219,671.5 Q39.1719,671.2344 39.5469,671.2344 Q39.9219,671.2344 40.1563,671.5 Q40.3906,671.7656 40.3906,672.375 L40.3906,675 L32.3906,675 Q31.7656,675 31.5,674.7656 Q31.25,674.5313 31.25,674.1406 Q31.25,673.7656 31.5156,673.5313 Q31.7813,673.2969 32.3906,673.2969 L32.6563,673.2969 L32.6563,666.6406 L32.3906,666.6406 Q31.7656,666.6406 31.5,666.4063 Q31.25,666.1719 31.25,665.7813 Q31.25,665.4063 31.5,665.1719 Q31.7656,664.9375 32.3906,664.9375 L40.0156,664.9375 L40.0156,667.5313 Q40.0156,668.1406 39.7813,668.4063 Q39.5625,668.6563 39.1719,668.6563 Q38.7969,668.6563 38.5625,668.4063 Q38.3281,668.1406 38.3281,667.5313 L38.3281,666.6406 L34.3594,666.6406 L34.3594,669.0938 L35.8438,669.0938 Q35.8438,668.4375 35.9688,668.25 Q36.2344,667.8438 36.7031,667.8438 Q37.0781,667.8438 37.3125,668.1094 Q37.5469,668.3594 37.5469,668.9688 L37.5469,670.9375 Q37.5469,671.4844 37.4219,671.6719 Q37.1563,672.0625 36.7031,672.0625 Q36.2344,672.0625 35.9688,671.6563 Q35.8438,671.4688 35.8438,670.7969 L34.3594,670.7969 Z " fill="#000000"/><text fill="#000000" font-family="sans-serif" font-size="12" lengthAdjust="spacing" textLength="73" x="52.5" y="674.9102">ClinicalStage</text><line style="stroke:#A80036;stroke-width:1.5;" x1="8" x2="141" y1="686" y2="686"/><text fill="#000000" font-family="sans-serif" font-size="11" lengthAdjust="spacing" textLength="123" x="13" y="701.4189">clinicalStageID: String key</text><text fill="#000000" font-family="sans-serif" font-size="11" lengthAdjust="spacing" textLength="81" x="13" y="715.2549">cusID: String key</text><line style="stroke:#A80036;stroke-width:1.5;" x1="8" x2="141" y1="721.6719" y2="721.6719"/><!--MD5=[3789f583495d1bfaa6ca8dc253ddd44a]
class PathologicalStage--><rect codeLine="52" fill="#FEFECE" filter="url(#fcj355x1zconu)" height="75.6719" id="PathologicalStage" style="stroke:#A80036;stroke-width:1.5;" width="160" x="177.5" y="654"/><ellipse cx="205.1" cy="670" fill="#ADD1B2" rx="11" ry="11" style="stroke:#A80036;stroke-width:1.0;"/><path d="M203.9594,670.7969 L203.9594,673.2969 L208.2875,673.2969 L208.2875,672.375 Q208.2875,671.7656 208.5219,671.5 Q208.7719,671.2344 209.1469,671.2344 Q209.5219,671.2344 209.7563,671.5 Q209.9906,671.7656 209.9906,672.375 L209.9906,675 L201.9906,675 Q201.3656,675 201.1,674.7656 Q200.85,674.5313 200.85,674.1406 Q200.85,673.7656 201.1156,673.5313 Q201.3813,673.2969 201.9906,673.2969 L202.2563,673.2969 L202.2563,666.6406 L201.9906,666.6406 Q201.3656,666.6406 201.1,666.4063 Q200.85,666.1719 200.85,665.7813 Q200.85,665.4063 201.1,665.1719 Q201.3656,664.9375 201.9906,664.9375 L209.6156,664.9375 L209.6156,667.5313 Q209.6156,668.1406 209.3813,668.4063 Q209.1625,668.6563 208.7719,668.6563 Q208.3969,668.6563 208.1625,668.4063 Q207.9281,668.1406 207.9281,667.5313 L207.9281,666.6406 L203.9594,666.6406 L203.9594,669.0938 L205.4438,669.0938 Q205.4438,668.4375 205.5688,668.25 Q205.8344,667.8438 206.3031,667.8438 Q206.6781,667.8438 206.9125,668.1094 Q207.1469,668.3594 207.1469,668.9688 L207.1469,670.9375 Q207.1469,671.4844 207.0219,671.6719 Q206.7563,672.0625 206.3031,672.0625 Q205.8344,672.0625 205.5688,671.6563 Q205.4438,671.4688 205.4438,670.7969 L203.9594,670.7969 Z " fill="#000000"/><text fill="#000000" font-family="sans-serif" font-size="12" lengthAdjust="spacing" textLength="100" x="221.9" y="674.9102">PathologicalStage</text><line style="stroke:#A80036;stroke-width:1.5;" x1="178.5" x2="336.5" y1="686" y2="686"/><text fill="#000000" font-family="sans-serif" font-size="11" lengthAdjust="spacing" textLength="148" x="183.5" y="701.4189">pathologicalStageID: String key</text><text fill="#000000" font-family="sans-serif" font-size="11" lengthAdjust="spacing" textLength="81" x="183.5" y="715.2549">cusID: String key</text><line style="stroke:#A80036;stroke-width:1.5;" x1="178.5" x2="336.5" y1="721.6719" y2="721.6719"/><!--MD5=[a89e0f03e166a4dd6ad1d6a39fcb41ee]
class MSite--><rect codeLine="56" fill="#FEFECE" filter="url(#fcj355x1zconu)" height="61.8359" id="MSite" style="stroke:#A80036;stroke-width:1.5;" width="101" x="373" y="661"/><ellipse cx="405.55" cy="677" fill="#ADD1B2" rx="11" ry="11" style="stroke:#A80036;stroke-width:1.0;"/><path d="M404.4094,677.7969 L404.4094,680.2969 L408.7375,680.2969 L408.7375,679.375 Q408.7375,678.7656 408.9719,678.5 Q409.2219,678.2344 409.5969,678.2344 Q409.9719,678.2344 410.2063,678.5 Q410.4406,678.7656 410.4406,679.375 L410.4406,682 L402.4406,682 Q401.8156,682 401.55,681.7656 Q401.3,681.5313 401.3,681.1406 Q401.3,680.7656 401.5656,680.5313 Q401.8313,680.2969 402.4406,680.2969 L402.7063,680.2969 L402.7063,673.6406 L402.4406,673.6406 Q401.8156,673.6406 401.55,673.4063 Q401.3,673.1719 401.3,672.7813 Q401.3,672.4063 401.55,672.1719 Q401.8156,671.9375 402.4406,671.9375 L410.0656,671.9375 L410.0656,674.5313 Q410.0656,675.1406 409.8313,675.4063 Q409.6125,675.6563 409.2219,675.6563 Q408.8469,675.6563 408.6125,675.4063 Q408.3781,675.1406 408.3781,674.5313 L408.3781,673.6406 L404.4094,673.6406 L404.4094,676.0938 L405.8938,676.0938 Q405.8938,675.4375 406.0188,675.25 Q406.2844,674.8438 406.7531,674.8438 Q407.1281,674.8438 407.3625,675.1094 Q407.5969,675.3594 407.5969,675.9688 L407.5969,677.9375 Q407.5969,678.4844 407.4719,678.6719 Q407.2063,679.0625 406.7531,679.0625 Q406.2844,679.0625 406.0188,678.6563 Q405.8938,678.4688 405.8938,677.7969 L404.4094,677.7969 Z " fill="#000000"/><text fill="#000000" font-family="sans-serif" font-size="12" lengthAdjust="spacing" textLength="30" x="423.45" y="681.9102">MSite</text><line style="stroke:#A80036;stroke-width:1.5;" x1="374" x2="473" y1="693" y2="693"/><text fill="#000000" font-family="sans-serif" font-size="11" lengthAdjust="spacing" textLength="89" x="379" y="708.4189">mSiteID: String key</text><line style="stroke:#A80036;stroke-width:1.5;" x1="374" x2="473" y1="714.8359" y2="714.8359"/><!--MD5=[e7469840758b3c985e00ad03463c2ff2]
class Treatment--><rect codeLine="61" fill="#FEFECE" filter="url(#fcj355x1zconu)" height="75.6719" id="Treatment" style="stroke:#A80036;stroke-width:1.5;" width="107" x="673" y="504"/><ellipse cx="696.55" cy="520" fill="#ADD1B2" rx="11" ry="11" style="stroke:#A80036;stroke-width:1.0;"/><path d="M695.4094,520.7969 L695.4094,523.2969 L699.7375,523.2969 L699.7375,522.375 Q699.7375,521.7656 699.9719,521.5 Q700.2219,521.2344 700.5969,521.2344 Q700.9719,521.2344 701.2063,521.5 Q701.4406,521.7656 701.4406,522.375 L701.4406,525 L693.4406,525 Q692.8156,525 692.55,524.7656 Q692.3,524.5313 692.3,524.1406 Q692.3,523.7656 692.5656,523.5313 Q692.8313,523.2969 693.4406,523.2969 L693.7063,523.2969 L693.7063,516.6406 L693.4406,516.6406 Q692.8156,516.6406 692.55,516.4063 Q692.3,516.1719 692.3,515.7813 Q692.3,515.4063 692.55,515.1719 Q692.8156,514.9375 693.4406,514.9375 L701.0656,514.9375 L701.0656,517.5313 Q701.0656,518.1406 700.8313,518.4063 Q700.6125,518.6563 700.2219,518.6563 Q699.8469,518.6563 699.6125,518.4063 Q699.3781,518.1406 699.3781,517.5313 L699.3781,516.6406 L695.4094,516.6406 L695.4094,519.0938 L696.8938,519.0938 Q696.8938,518.4375 697.0188,518.25 Q697.2844,517.8438 697.7531,517.8438 Q698.1281,517.8438 698.3625,518.1094 Q698.5969,518.3594 698.5969,518.9688 L698.5969,520.9375 Q698.5969,521.4844 698.4719,521.6719 Q698.2063,522.0625 697.7531,522.0625 Q697.2844,522.0625 697.0188,521.6563 Q696.8938,521.4688 696.8938,520.7969 L695.4094,520.7969 Z " fill="#000000"/><text fill="#000000" font-family="sans-serif" font-size="12" lengthAdjust="spacing" textLength="56" x="712.45" y="524.9102">Treatment</text><line style="stroke:#A80036;stroke-width:1.5;" x1="674" x2="779" y1="536" y2="536"/><text fill="#000000" font-family="sans-serif" font-size="11" lengthAdjust="spacing" textLength="95" x="679" y="551.4189">patientID: String key</text><text fill="#000000" font-family="sans-serif" font-size="11" lengthAdjust="spacing" textLength="81" x="679" y="565.2549">cusID: String key</text><line style="stroke:#A80036;stroke-width:1.5;" x1="674" x2="779" y1="571.6719" y2="571.6719"/><!--MD5=[925ac001e8c4a864f65a5c623791e65b]
class CUSSubsite--><rect codeLine="65" fill="#FEFECE" filter="url(#fcj355x1zconu)" height="75.6719" id="CUSSubsite" style="stroke:#A80036;stroke-width:1.5;" width="107" x="815" y="504"/><ellipse cx="833.15" cy="520" fill="#ADD1B2" rx="11" ry="11" style="stroke:#A80036;stroke-width:1.0;"/><path d="M832.0094,520.7969 L832.0094,523.2969 L836.3375,523.2969 L836.3375,522.375 Q836.3375,521.7656 836.5719,521.5 Q836.8219,521.2344 837.1969,521.2344 Q837.5719,521.2344 837.8063,521.5 Q838.0406,521.7656 838.0406,522.375 L838.0406,525 L830.0406,525 Q829.4156,525 829.15,524.7656 Q828.9,524.5313 828.9,524.1406 Q828.9,523.7656 829.1656,523.5313 Q829.4313,523.2969 830.0406,523.2969 L830.3063,523.2969 L830.3063,516.6406 L830.0406,516.6406 Q829.4156,516.6406 829.15,516.4063 Q828.9,516.1719 828.9,515.7813 Q828.9,515.4063 829.15,515.1719 Q829.4156,514.9375 830.0406,514.9375 L837.6656,514.9375 L837.6656,517.5313 Q837.6656,518.1406 837.4313,518.4063 Q837.2125,518.6563 836.8219,518.6563 Q836.4469,518.6563 836.2125,518.4063 Q835.9781,518.1406 835.9781,517.5313 L835.9781,516.6406 L832.0094,516.6406 L832.0094,519.0938 L833.4938,519.0938 Q833.4938,518.4375 833.6188,518.25 Q833.8844,517.8438 834.3531,517.8438 Q834.7281,517.8438 834.9625,518.1094 Q835.1969,518.3594 835.1969,518.9688 L835.1969,520.9375 Q835.1969,521.4844 835.0719,521.6719 Q834.8063,522.0625 834.3531,522.0625 Q833.8844,522.0625 833.6188,521.6563 Q833.4938,521.4688 833.4938,520.7969 L832.0094,520.7969 Z " fill="#000000"/><text fill="#000000" font-family="sans-serif" font-size="12" lengthAdjust="spacing" textLength="68" x="847.85" y="524.9102">CUSSubsite</text><line style="stroke:#A80036;stroke-width:1.5;" x1="816" x2="921" y1="536" y2="536"/><text fill="#000000" font-family="sans-serif" font-size="11" lengthAdjust="spacing" textLength="95" x="821" y="551.4189">patientID: String key</text><text fill="#000000" font-family="sans-serif" font-size="11" lengthAdjust="spacing" textLength="81" x="821" y="565.2549">cusID: String key</text><line style="stroke:#A80036;stroke-width:1.5;" x1="816" x2="921" y1="571.6719" y2="571.6719"/><!--MD5=[060cec3c004256af3a30db526b1bcb2d]
class Surgery--><rect codeLine="70" fill="#FEFECE" filter="url(#fcj355x1zconu)" height="89.5078" id="Surgery" style="stroke:#A80036;stroke-width:1.5;" width="113" x="509" y="647"/><ellipse cx="541.55" cy="663" fill="#ADD1B2" rx="11" ry="11" style="stroke:#A80036;stroke-width:1.0;"/><path d="M540.4094,663.7969 L540.4094,666.2969 L544.7375,666.2969 L544.7375,665.375 Q544.7375,664.7656 544.9719,664.5 Q545.2219,664.2344 545.5969,664.2344 Q545.9719,664.2344 546.2063,664.5 Q546.4406,664.7656 546.4406,665.375 L546.4406,668 L538.4406,668 Q537.8156,668 537.55,667.7656 Q537.3,667.5313 537.3,667.1406 Q537.3,666.7656 537.5656,666.5313 Q537.8313,666.2969 538.4406,666.2969 L538.7063,666.2969 L538.7063,659.6406 L538.4406,659.6406 Q537.8156,659.6406 537.55,659.4063 Q537.3,659.1719 537.3,658.7813 Q537.3,658.4063 537.55,658.1719 Q537.8156,657.9375 538.4406,657.9375 L546.0656,657.9375 L546.0656,660.5313 Q546.0656,661.1406 545.8313,661.4063 Q545.6125,661.6563 545.2219,661.6563 Q544.8469,661.6563 544.6125,661.4063 Q544.3781,661.1406 544.3781,660.5313 L544.3781,659.6406 L540.4094,659.6406 L540.4094,662.0938 L541.8938,662.0938 Q541.8938,661.4375 542.0188,661.25 Q542.2844,660.8438 542.7531,660.8438 Q543.1281,660.8438 543.3625,661.1094 Q543.5969,661.3594 543.5969,661.9688 L543.5969,663.9375 Q543.5969,664.4844 543.4719,664.6719 Q543.2063,665.0625 542.7531,665.0625 Q542.2844,665.0625 542.0188,664.6563 Q541.8938,664.4688 541.8938,663.7969 L540.4094,663.7969 Z " fill="#000000"/><text fill="#000000" font-family="sans-serif" font-size="12" lengthAdjust="spacing" textLength="42" x="559.45" y="667.9102">Surgery</text><line style="stroke:#A80036;stroke-width:1.5;" x1="510" x2="621" y1="679" y2="679"/><text fill="#000000" font-family="sans-serif" font-size="11" lengthAdjust="spacing" textLength="95" x="515" y="694.4189">patientID: String key</text><text fill="#000000" font-family="sans-serif" font-size="11" lengthAdjust="spacing" textLength="81" x="515" y="708.2549">cusID: String key</text><text fill="#000000" font-family="sans-serif" font-size="11" lengthAdjust="spacing" textLength="101" x="515" y="722.0908">surgeryID: String key</text><line style="stroke:#A80036;stroke-width:1.5;" x1="510" x2="621" y1="728.5078" y2="728.5078"/><!--MD5=[55cf4dfd8f2dd387201eb79d4f68f7aa]
class SystemicTreatment--><rect codeLine="76" fill="#FEFECE" filter="url(#fcj355x1zconu)" height="89.5078" id="SystemicTreatment" style="stroke:#A80036;stroke-width:1.5;" width="138" x="657.5" y="647"/><ellipse cx="672.5" cy="663" fill="#ADD1B2" rx="11" ry="11" style="stroke:#A80036;stroke-width:1.0;"/><path d="M671.3594,663.7969 L671.3594,666.2969 L675.6875,666.2969 L675.6875,665.375 Q675.6875,664.7656 675.9219,664.5 Q676.1719,664.2344 676.5469,664.2344 Q676.9219,664.2344 677.1563,664.5 Q677.3906,664.7656 677.3906,665.375 L677.3906,668 L669.3906,668 Q668.7656,668 668.5,667.7656 Q668.25,667.5313 668.25,667.1406 Q668.25,666.7656 668.5156,666.5313 Q668.7813,666.2969 669.3906,666.2969 L669.6563,666.2969 L669.6563,659.6406 L669.3906,659.6406 Q668.7656,659.6406 668.5,659.4063 Q668.25,659.1719 668.25,658.7813 Q668.25,658.4063 668.5,658.1719 Q668.7656,657.9375 669.3906,657.9375 L677.0156,657.9375 L677.0156,660.5313 Q677.0156,661.1406 676.7813,661.4063 Q676.5625,661.6563 676.1719,661.6563 Q675.7969,661.6563 675.5625,661.4063 Q675.3281,661.1406 675.3281,660.5313 L675.3281,659.6406 L671.3594,659.6406 L671.3594,662.0938 L672.8438,662.0938 Q672.8438,661.4375 672.9688,661.25 Q673.2344,660.8438 673.7031,660.8438 Q674.0781,660.8438 674.3125,661.1094 Q674.5469,661.3594 674.5469,661.9688 L674.5469,663.9375 Q674.5469,664.4844 674.4219,664.6719 Q674.1563,665.0625 673.7031,665.0625 Q673.2344,665.0625 672.9688,664.6563 Q672.8438,664.4688 672.8438,663.7969 L671.3594,663.7969 Z " fill="#000000"/><text fill="#000000" font-family="sans-serif" font-size="12" lengthAdjust="spacing" textLength="106" x="686.5" y="667.9102">SystemicTreatment</text><line style="stroke:#A80036;stroke-width:1.5;" x1="658.5" x2="794.5" y1="679" y2="679"/><text fill="#000000" font-family="sans-serif" font-size="11" lengthAdjust="spacing" textLength="95" x="663.5" y="694.4189">patientID: String key</text><text fill="#000000" font-family="sans-serif" font-size="11" lengthAdjust="spacing" textLength="81" x="663.5" y="708.2549">cusID: String key</text><text fill="#000000" font-family="sans-serif" font-size="11" lengthAdjust="spacing" textLength="101" x="663.5" y="722.0908">surgeryID: String key</text><line style="stroke:#A80036;stroke-width:1.5;" x1="658.5" x2="794.5" y1="728.5078" y2="728.5078"/><!--MD5=[cb7fd1badb6e9a176147847c02797632]
class RadioTherapy--><rect codeLine="83" fill="#FEFECE" filter="url(#fcj355x1zconu)" height="89.5078" id="RadioTherapy" style="stroke:#A80036;stroke-width:1.5;" width="139" x="831" y="647"/><ellipse cx="859.5" cy="663" fill="#ADD1B2" rx="11" ry="11" style="stroke:#A80036;stroke-width:1.0;"/><path d="M858.3594,663.7969 L858.3594,666.2969 L862.6875,666.2969 L862.6875,665.375 Q862.6875,664.7656 862.9219,664.5 Q863.1719,664.2344 863.5469,664.2344 Q863.9219,664.2344 864.1563,664.5 Q864.3906,664.7656 864.3906,665.375 L864.3906,668 L856.3906,668 Q855.7656,668 855.5,667.7656 Q855.25,667.5313 855.25,667.1406 Q855.25,666.7656 855.5156,666.5313 Q855.7813,666.2969 856.3906,666.2969 L856.6563,666.2969 L856.6563,659.6406 L856.3906,659.6406 Q855.7656,659.6406 855.5,659.4063 Q855.25,659.1719 855.25,658.7813 Q855.25,658.4063 855.5,658.1719 Q855.7656,657.9375 856.3906,657.9375 L864.0156,657.9375 L864.0156,660.5313 Q864.0156,661.1406 863.7813,661.4063 Q863.5625,661.6563 863.1719,661.6563 Q862.7969,661.6563 862.5625,661.4063 Q862.3281,661.1406 862.3281,660.5313 L862.3281,659.6406 L858.3594,659.6406 L858.3594,662.0938 L859.8438,662.0938 Q859.8438,661.4375 859.9688,661.25 Q860.2344,660.8438 860.7031,660.8438 Q861.0781,660.8438 861.3125,661.1094 Q861.5469,661.3594 861.5469,661.9688 L861.5469,663.9375 Q861.5469,664.4844 861.4219,664.6719 Q861.1563,665.0625 860.7031,665.0625 Q860.2344,665.0625 859.9688,664.6563 Q859.8438,664.4688 859.8438,663.7969 L858.3594,663.7969 Z " fill="#000000"/><text fill="#000000" font-family="sans-serif" font-size="12" lengthAdjust="spacing" textLength="77" x="876.5" y="667.9102">RadioTherapy</text><line style="stroke:#A80036;stroke-width:1.5;" x1="832" x2="969" y1="679" y2="679"/><text fill="#000000" font-family="sans-serif" font-size="11" lengthAdjust="spacing" textLength="95" x="837" y="694.4189">patientID: String key</text><text fill="#000000" font-family="sans-serif" font-size="11" lengthAdjust="spacing" textLength="81" x="837" y="708.2549">cusID: String key</text><text fill="#000000" font-family="sans-serif" font-size="11" lengthAdjust="spacing" textLength="127" x="837" y="722.0908">radioTherapyID: String key</text><line style="stroke:#A80036;stroke-width:1.5;" x1="832" x2="969" y1="728.5078" y2="728.5078"/><!--MD5=[0974ee743e1bce09a104426d2fad911f]
class OtherTreatment--><rect codeLine="89" fill="#FEFECE" filter="url(#fcj355x1zconu)" height="75.6719" id="OtherTreatment" style="stroke:#A80036;stroke-width:1.5;" width="118" x="1005.5" y="654"/><ellipse cx="1020.5" cy="670" fill="#ADD1B2" rx="11" ry="11" style="stroke:#A80036;stroke-width:1.0;"/><path d="M1019.3594,670.7969 L1019.3594,673.2969 L1023.6875,673.2969 L1023.6875,672.375 Q1023.6875,671.7656 1023.9219,671.5 Q1024.1719,671.2344 1024.5469,671.2344 Q1024.9219,671.2344 1025.1563,671.5 Q1025.3906,671.7656 1025.3906,672.375 L1025.3906,675 L1017.3906,675 Q1016.7656,675 1016.5,674.7656 Q1016.25,674.5313 1016.25,674.1406 Q1016.25,673.7656 1016.5156,673.5313 Q1016.7813,673.2969 1017.3906,673.2969 L1017.6563,673.2969 L1017.6563,666.6406 L1017.3906,666.6406 Q1016.7656,666.6406 1016.5,666.4063 Q1016.25,666.1719 1016.25,665.7813 Q1016.25,665.4063 1016.5,665.1719 Q1016.7656,664.9375 1017.3906,664.9375 L1025.0156,664.9375 L1025.0156,667.5313 Q1025.0156,668.1406 1024.7813,668.4063 Q1024.5625,668.6563 1024.1719,668.6563 Q1023.7969,668.6563 1023.5625,668.4063 Q1023.3281,668.1406 1023.3281,667.5313 L1023.3281,666.6406 L1019.3594,666.6406 L1019.3594,669.0938 L1020.8438,669.0938 Q1020.8438,668.4375 1020.9688,668.25 Q1021.2344,667.8438 1021.7031,667.8438 Q1022.0781,667.8438 1022.3125,668.1094 Q1022.5469,668.3594 1022.5469,668.9688 L1022.5469,670.9375 Q1022.5469,671.4844 1022.4219,671.6719 Q1022.1563,672.0625 1021.7031,672.0625 Q1021.2344,672.0625 1020.9688,671.6563 Q1020.8438,671.4688 1020.8438,670.7969 L1019.3594,670.7969 Z " fill="#000000"/><text fill="#000000" font-family="sans-serif" font-size="12" lengthAdjust="spacing" textLength="86" x="1034.5" y="674.9102">OtherTreatment</text><line style="stroke:#A80036;stroke-width:1.5;" x1="1006.5" x2="1122.5" y1="686" y2="686"/><text fill="#000000" font-family="sans-serif" font-size="11" lengthAdjust="spacing" textLength="95" x="1011.5" y="701.4189">patientID: String key</text><text fill="#000000" font-family="sans-serif" font-size="11" lengthAdjust="spacing" textLength="81" x="1011.5" y="715.2549">cusID: String key</text><line style="stroke:#A80036;stroke-width:1.5;" x1="1006.5" x2="1122.5" y1="721.6719" y2="721.6719"/><!--MD5=[1b159f3a292a889331f07ad327c274d9]
class TreatmentResponse--><rect codeLine="94" fill="#FEFECE" filter="url(#fcj355x1zconu)" height="75.6719" id="TreatmentResponse" style="stroke:#A80036;stroke-width:1.5;" width="146" x="1158.5" y="654"/><ellipse cx="1173.5" cy="670" fill="#ADD1B2" rx="11" ry="11" style="stroke:#A80036;stroke-width:1.0;"/><path d="M1172.3594,670.7969 L1172.3594,673.2969 L1176.6875,673.2969 L1176.6875,672.375 Q1176.6875,671.7656 1176.9219,671.5 Q1177.1719,671.2344 1177.5469,671.2344 Q1177.9219,671.2344 1178.1563,671.5 Q1178.3906,671.7656 1178.3906,672.375 L1178.3906,675 L1170.3906,675 Q1169.7656,675 1169.5,674.7656 Q1169.25,674.5313 1169.25,674.1406 Q1169.25,673.7656 1169.5156,673.5313 Q1169.7813,673.2969 1170.3906,673.2969 L1170.6563,673.2969 L1170.6563,666.6406 L1170.3906,666.6406 Q1169.7656,666.6406 1169.5,666.4063 Q1169.25,666.1719 1169.25,665.7813 Q1169.25,665.4063 1169.5,665.1719 Q1169.7656,664.9375 1170.3906,664.9375 L1178.0156,664.9375 L1178.0156,667.5313 Q1178.0156,668.1406 1177.7813,668.4063 Q1177.5625,668.6563 1177.1719,668.6563 Q1176.7969,668.6563 1176.5625,668.4063 Q1176.3281,668.1406 1176.3281,667.5313 L1176.3281,666.6406 L1172.3594,666.6406 L1172.3594,669.0938 L1173.8438,669.0938 Q1173.8438,668.4375 1173.9688,668.25 Q1174.2344,667.8438 1174.7031,667.8438 Q1175.0781,667.8438 1175.3125,668.1094 Q1175.5469,668.3594 1175.5469,668.9688 L1175.5469,670.9375 Q1175.5469,671.4844 1175.4219,671.6719 Q1175.1563,672.0625 1174.7031,672.0625 Q1174.2344,672.0625 1173.9688,671.6563 Q1173.8438,671.4688 1173.8438,670.7969 L1172.3594,670.7969 Z " fill="#000000"/><text fill="#000000" font-family="sans-serif" font-size="12" lengthAdjust="spacing" textLength="114" x="1187.5" y="674.9102">TreatmentResponse</text><line style="stroke:#A80036;stroke-width:1.5;" x1="1159.5" x2="1303.5" y1="686" y2="686"/><text fill="#000000" font-family="sans-serif" font-size="11" lengthAdjust="spacing" textLength="95" x="1164.5" y="701.4189">patientID: String key</text><text fill="#000000" font-family="sans-serif" font-size="11" lengthAdjust="spacing" textLength="81" x="1164.5" y="715.2549">cusID: String key</text><line style="stroke:#A80036;stroke-width:1.5;" x1="1159.5" x2="1303.5" y1="721.6719" y2="721.6719"/><!--MD5=[97aca30e35c09771f7943f11dc9d0310]
class PatientIncludedInClinicalTrial--><rect codeLine="99" fill="#FEFECE" filter="url(#fcj355x1zconu)" height="75.6719" id="PatientIncludedInClinicalTrial" style="stroke:#A80036;stroke-width:1.5;" width="192" x="1339.5" y="654"/><ellipse cx="1354.5" cy="670" fill="#ADD1B2" rx="11" ry="11" style="stroke:#A80036;stroke-width:1.0;"/><path d="M1353.3594,670.7969 L1353.3594,673.2969 L1357.6875,673.2969 L1357.6875,672.375 Q1357.6875,671.7656 1357.9219,671.5 Q1358.1719,671.2344 1358.5469,671.2344 Q1358.9219,671.2344 1359.1563,671.5 Q1359.3906,671.7656 1359.3906,672.375 L1359.3906,675 L1351.3906,675 Q1350.7656,675 1350.5,674.7656 Q1350.25,674.5313 1350.25,674.1406 Q1350.25,673.7656 1350.5156,673.5313 Q1350.7813,673.2969 1351.3906,673.2969 L1351.6563,673.2969 L1351.6563,666.6406 L1351.3906,666.6406 Q1350.7656,666.6406 1350.5,666.4063 Q1350.25,666.1719 1350.25,665.7813 Q1350.25,665.4063 1350.5,665.1719 Q1350.7656,664.9375 1351.3906,664.9375 L1359.0156,664.9375 L1359.0156,667.5313 Q1359.0156,668.1406 1358.7813,668.4063 Q1358.5625,668.6563 1358.1719,668.6563 Q1357.7969,668.6563 1357.5625,668.4063 Q1357.3281,668.1406 1357.3281,667.5313 L1357.3281,666.6406 L1353.3594,666.6406 L1353.3594,669.0938 L1354.8438,669.0938 Q1354.8438,668.4375 1354.9688,668.25 Q1355.2344,667.8438 1355.7031,667.8438 Q1356.0781,667.8438 1356.3125,668.1094 Q1356.5469,668.3594 1356.5469,668.9688 L1356.5469,670.9375 Q1356.5469,671.4844 1356.4219,671.6719 Q1356.1563,672.0625 1355.7031,672.0625 Q1355.2344,672.0625 1354.9688,671.6563 Q1354.8438,671.4688 1354.8438,670.7969 L1353.3594,670.7969 Z " fill="#000000"/><text fill="#000000" font-family="sans-serif" font-size="12" lengthAdjust="spacing" textLength="160" x="1368.5" y="674.9102">PatientIncludedInClinicalTrial</text><line style="stroke:#A80036;stroke-width:1.5;" x1="1340.5" x2="1530.5" y1="686" y2="686"/><text fill="#000000" font-family="sans-serif" font-size="11" lengthAdjust="spacing" textLength="95" x="1345.5" y="701.4189">patientID: String key</text><text fill="#000000" font-family="sans-serif" font-size="11" lengthAdjust="spacing" textLength="81" x="1345.5" y="715.2549">cusID: String key</text><line style="stroke:#A80036;stroke-width:1.5;" x1="1340.5" x2="1530.5" y1="721.6719" y2="721.6719"/><!--MD5=[7684353f5999693d5a9e8e0b105ae0be]
class PatientStatus--><rect codeLine="104" fill="#FEFECE" filter="url(#fcj355x1zconu)" height="61.8359" id="PatientStatus" style="stroke:#A80036;stroke-width:1.5;" width="107" x="901" y="368"/><ellipse cx="916.9" cy="384" fill="#ADD1B2" rx="11" ry="11" style="stroke:#A80036;stroke-width:1.0;"/><path d="M915.7594,384.7969 L915.7594,387.2969 L920.0875,387.2969 L920.0875,386.375 Q920.0875,385.7656 920.3219,385.5 Q920.5719,385.2344 920.9469,385.2344 Q921.3219,385.2344 921.5563,385.5 Q921.7906,385.7656 921.7906,386.375 L921.7906,389 L913.7906,389 Q913.1656,389 912.9,388.7656 Q912.65,388.5313 912.65,388.1406 Q912.65,387.7656 912.9156,387.5313 Q913.1813,387.2969 913.7906,387.2969 L914.0563,387.2969 L914.0563,380.6406 L913.7906,380.6406 Q913.1656,380.6406 912.9,380.4063 Q912.65,380.1719 912.65,379.7813 Q912.65,379.4063 912.9,379.1719 Q913.1656,378.9375 913.7906,378.9375 L921.4156,378.9375 L921.4156,381.5313 Q921.4156,382.1406 921.1813,382.4063 Q920.9625,382.6563 920.5719,382.6563 Q920.1969,382.6563 919.9625,382.4063 Q919.7281,382.1406 919.7281,381.5313 L919.7281,380.6406 L915.7594,380.6406 L915.7594,383.0938 L917.2438,383.0938 Q917.2438,382.4375 917.3688,382.25 Q917.6344,381.8438 918.1031,381.8438 Q918.4781,381.8438 918.7125,382.1094 Q918.9469,382.3594 918.9469,382.9688 L918.9469,384.9375 Q918.9469,385.4844 918.8219,385.6719 Q918.5563,386.0625 918.1031,386.0625 Q917.6344,386.0625 917.3688,385.6563 Q917.2438,385.4688 917.2438,384.7969 L915.7594,384.7969 Z " fill="#000000"/><text fill="#000000" font-family="sans-serif" font-size="12" lengthAdjust="spacing" textLength="73" x="931.1" y="388.9102">PatientStatus</text><line style="stroke:#A80036;stroke-width:1.5;" x1="902" x2="1007" y1="400" y2="400"/><text fill="#000000" font-family="sans-serif" font-size="11" lengthAdjust="spacing" textLength="95" x="907" y="415.4189">patientID: String key</text><line style="stroke:#A80036;stroke-width:1.5;" x1="902" x2="1007" y1="421.8359" y2="421.8359"/><!--MD5=[3db029403ae37196ba4ae15a7086b8f3]
class AdverseEvent--><rect codeLine="108" fill="#FEFECE" filter="url(#fcj355x1zconu)" height="75.6719" id="AdverseEvent" style="stroke:#A80036;stroke-width:1.5;" width="107" x="957" y="504"/><ellipse cx="972.45" cy="520" fill="#ADD1B2" rx="11" ry="11" style="stroke:#A80036;stroke-width:1.0;"/><path d="M971.3094,520.7969 L971.3094,523.2969 L975.6375,523.2969 L975.6375,522.375 Q975.6375,521.7656 975.8719,521.5 Q976.1219,521.2344 976.4969,521.2344 Q976.8719,521.2344 977.1063,521.5 Q977.3406,521.7656 977.3406,522.375 L977.3406,525 L969.3406,525 Q968.7156,525 968.45,524.7656 Q968.2,524.5313 968.2,524.1406 Q968.2,523.7656 968.4656,523.5313 Q968.7313,523.2969 969.3406,523.2969 L969.6063,523.2969 L969.6063,516.6406 L969.3406,516.6406 Q968.7156,516.6406 968.45,516.4063 Q968.2,516.1719 968.2,515.7813 Q968.2,515.4063 968.45,515.1719 Q968.7156,514.9375 969.3406,514.9375 L976.9656,514.9375 L976.9656,517.5313 Q976.9656,518.1406 976.7313,518.4063 Q976.5125,518.6563 976.1219,518.6563 Q975.7469,518.6563 975.5125,518.4063 Q975.2781,518.1406 975.2781,517.5313 L975.2781,516.6406 L971.3094,516.6406 L971.3094,519.0938 L972.7938,519.0938 Q972.7938,518.4375 972.9188,518.25 Q973.1844,517.8438 973.6531,517.8438 Q974.0281,517.8438 974.2625,518.1094 Q974.4969,518.3594 974.4969,518.9688 L974.4969,520.9375 Q974.4969,521.4844 974.3719,521.6719 Q974.1063,522.0625 973.6531,522.0625 Q973.1844,522.0625 972.9188,521.6563 Q972.7938,521.4688 972.7938,520.7969 L971.3094,520.7969 Z " fill="#000000"/><text fill="#000000" font-family="sans-serif" font-size="12" lengthAdjust="spacing" textLength="74" x="986.55" y="524.9102">AdverseEvent</text><line style="stroke:#A80036;stroke-width:1.5;" x1="958" x2="1063" y1="536" y2="536"/><text fill="#000000" font-family="sans-serif" font-size="11" lengthAdjust="spacing" textLength="95" x="963" y="551.4189">patientID: String key</text><text fill="#000000" font-family="sans-serif" font-size="11" lengthAdjust="spacing" textLength="22" x="963" y="565.2549">miau</text><line style="stroke:#A80036;stroke-width:1.5;" x1="958" x2="1063" y1="571.6719" y2="571.6719"/><!--MD5=[eedc26a6cdc49045a79d939b6011c10f]
class ImagingAvailable--><rect codeLine="112" fill="#FEFECE" filter="url(#fcj355x1zconu)" height="75.6719" id="ImagingAvailable" style="stroke:#A80036;stroke-width:1.5;" width="126" x="1099.5" y="504"/><ellipse cx="1114.5" cy="520" fill="#ADD1B2" rx="11" ry="11" style="stroke:#A80036;stroke-width:1.0;"/><path d="M1113.3594,520.7969 L1113.3594,523.2969 L1117.6875,523.2969 L1117.6875,522.375 Q1117.6875,521.7656 1117.9219,521.5 Q1118.1719,521.2344 1118.5469,521.2344 Q1118.9219,521.2344 1119.1563,521.5 Q1119.3906,521.7656 1119.3906,522.375 L1119.3906,525 L1111.3906,525 Q1110.7656,525 1110.5,524.7656 Q1110.25,524.5313 1110.25,524.1406 Q1110.25,523.7656 1110.5156,523.5313 Q1110.7813,523.2969 1111.3906,523.2969 L1111.6563,523.2969 L1111.6563,516.6406 L1111.3906,516.6406 Q1110.7656,516.6406 1110.5,516.4063 Q1110.25,516.1719 1110.25,515.7813 Q1110.25,515.4063 1110.5,515.1719 Q1110.7656,514.9375 1111.3906,514.9375 L1119.0156,514.9375 L1119.0156,517.5313 Q1119.0156,518.1406 1118.7813,518.4063 Q1118.5625,518.6563 1118.1719,518.6563 Q1117.7969,518.6563 1117.5625,518.4063 Q1117.3281,518.1406 1117.3281,517.5313 L1117.3281,516.6406 L1113.3594,516.6406 L1113.3594,519.0938 L1114.8438,519.0938 Q1114.8438,518.4375 1114.9688,518.25 Q1115.2344,517.8438 1115.7031,517.8438 Q1116.0781,517.8438 1116.3125,518.1094 Q1116.5469,518.3594 1116.5469,518.9688 L1116.5469,520.9375 Q1116.5469,521.4844 1116.4219,521.6719 Q1116.1563,522.0625 1115.7031,522.0625 Q1115.2344,522.0625 1114.9688,521.6563 Q1114.8438,521.4688 1114.8438,520.7969 L1113.3594,520.7969 Z " fill="#000000"/><text fill="#000000" font-family="sans-serif" font-size="12" lengthAdjust="spacing" textLength="94" x="1128.5" y="524.9102">ImagingAvailable</text><line style="stroke:#A80036;stroke-width:1.5;" x1="1100.5" x2="1224.5" y1="536" y2="536"/><text fill="#000000" font-family="sans-serif" font-size="11" lengthAdjust="spacing" textLength="95" x="1105.5" y="551.4189">patientID: String key</text><text fill="#000000" font-family="sans-serif" font-size="11" lengthAdjust="spacing" textLength="22" x="1105.5" y="565.2549">miau</text><line style="stroke:#A80036;stroke-width:1.5;" x1="1100.5" x2="1224.5" y1="571.6719" y2="571.6719"/><!--MD5=[df22d692bbf5d4730bbd11aceced3dcd]
class TumourSpecimenAvailable--><rect codeLine="116" fill="#FEFECE" filter="url(#fcj355x1zconu)" height="75.6719" id="TumourSpecimenAvailable" style="stroke:#A80036;stroke-width:1.5;" width="180" x="1260.5" y="504"/><ellipse cx="1275.5" cy="520" fill="#ADD1B2" rx="11" ry="11" style="stroke:#A80036;stroke-width:1.0;"/><path d="M1274.3594,520.7969 L1274.3594,523.2969 L1278.6875,523.2969 L1278.6875,522.375 Q1278.6875,521.7656 1278.9219,521.5 Q1279.1719,521.2344 1279.5469,521.2344 Q1279.9219,521.2344 1280.1563,521.5 Q1280.3906,521.7656 1280.3906,522.375 L1280.3906,525 L1272.3906,525 Q1271.7656,525 1271.5,524.7656 Q1271.25,524.5313 1271.25,524.1406 Q1271.25,523.7656 1271.5156,523.5313 Q1271.7813,523.2969 1272.3906,523.2969 L1272.6563,523.2969 L1272.6563,516.6406 L1272.3906,516.6406 Q1271.7656,516.6406 1271.5,516.4063 Q1271.25,516.1719 1271.25,515.7813 Q1271.25,515.4063 1271.5,515.1719 Q1271.7656,514.9375 1272.3906,514.9375 L1280.0156,514.9375 L1280.0156,517.5313 Q1280.0156,518.1406 1279.7813,518.4063 Q1279.5625,518.6563 1279.1719,518.6563 Q1278.7969,518.6563 1278.5625,518.4063 Q1278.3281,518.1406 1278.3281,517.5313 L1278.3281,516.6406 L1274.3594,516.6406 L1274.3594,519.0938 L1275.8438,519.0938 Q1275.8438,518.4375 1275.9688,518.25 Q1276.2344,517.8438 1276.7031,517.8438 Q1277.0781,517.8438 1277.3125,518.1094 Q1277.5469,518.3594 1277.5469,518.9688 L1277.5469,520.9375 Q1277.5469,521.4844 1277.4219,521.6719 Q1277.1563,522.0625 1276.7031,522.0625 Q1276.2344,522.0625 1275.9688,521.6563 Q1275.8438,521.4688 1275.8438,520.7969 L1274.3594,520.7969 Z " fill="#000000"/><text fill="#000000" font-family="sans-serif" font-size="12" lengthAdjust="spacing" textLength="148" x="1289.5" y="524.9102">TumourSpecimenAvailable</text><line style="stroke:#A80036;stroke-width:1.5;" x1="1261.5" x2="1439.5" y1="536" y2="536"/><text fill="#000000" font-family="sans-serif" font-size="11" lengthAdjust="spacing" textLength="95" x="1266.5" y="551.4189">patientID: String key</text><text fill="#000000" font-family="sans-serif" font-size="11" lengthAdjust="spacing" textLength="22" x="1266.5" y="565.2549">miau</text><line style="stroke:#A80036;stroke-width:1.5;" x1="1261.5" x2="1439.5" y1="571.6719" y2="571.6719"/><!--MD5=[38a97a885233698b6ef6991e490f42b8]
class TumourGeneticTest--><rect codeLine="120" fill="#FEFECE" filter="url(#fcj355x1zconu)" height="75.6719" id="TumourGeneticTest" style="stroke:#A80036;stroke-width:1.5;" width="141" x="1476" y="504"/><ellipse cx="1491" cy="520" fill="#ADD1B2" rx="11" ry="11" style="stroke:#A80036;stroke-width:1.0;"/><path d="M1489.8594,520.7969 L1489.8594,523.2969 L1494.1875,523.2969 L1494.1875,522.375 Q1494.1875,521.7656 1494.4219,521.5 Q1494.6719,521.2344 1495.0469,521.2344 Q1495.4219,521.2344 1495.6563,521.5 Q1495.8906,521.7656 1495.8906,522.375 L1495.8906,525 L1487.8906,525 Q1487.2656,525 1487,524.7656 Q1486.75,524.5313 1486.75,524.1406 Q1486.75,523.7656 1487.0156,523.5313 Q1487.2813,523.2969 1487.8906,523.2969 L1488.1563,523.2969 L1488.1563,516.6406 L1487.8906,516.6406 Q1487.2656,516.6406 1487,516.4063 Q1486.75,516.1719 1486.75,515.7813 Q1486.75,515.4063 1487,515.1719 Q1487.2656,514.9375 1487.8906,514.9375 L1495.5156,514.9375 L1495.5156,517.5313 Q1495.5156,518.1406 1495.2813,518.4063 Q1495.0625,518.6563 1494.6719,518.6563 Q1494.2969,518.6563 1494.0625,518.4063 Q1493.8281,518.1406 1493.8281,517.5313 L1493.8281,516.6406 L1489.8594,516.6406 L1489.8594,519.0938 L1491.3438,519.0938 Q1491.3438,518.4375 1491.4688,518.25 Q1491.7344,517.8438 1492.2031,517.8438 Q1492.5781,517.8438 1492.8125,518.1094 Q1493.0469,518.3594 1493.0469,518.9688 L1493.0469,520.9375 Q1493.0469,521.4844 1492.9219,521.6719 Q1492.6563,522.0625 1492.2031,522.0625 Q1491.7344,522.0625 1491.4688,521.6563 Q1491.3438,521.4688 1491.3438,520.7969 L1489.8594,520.7969 Z " fill="#000000"/><text fill="#000000" font-family="sans-serif" font-size="12" lengthAdjust="spacing" textLength="109" x="1505" y="524.9102">TumourGeneticTest</text><line style="stroke:#A80036;stroke-width:1.5;" x1="1477" x2="1616" y1="536" y2="536"/><text fill="#000000" font-family="sans-serif" font-size="11" lengthAdjust="spacing" textLength="95" x="1482" y="551.4189">patientID: String key</text><text fill="#000000" font-family="sans-serif" font-size="11" lengthAdjust="spacing" textLength="22" x="1482" y="565.2549">miau</text><line style="stroke:#A80036;stroke-width:1.5;" x1="1477" x2="1616" y1="571.6719" y2="571.6719"/><!--MD5=[5cd1b6d2376eace7edf33faeb70fce8e]
class Drugs--><rect codeLine="124" fill="#FEFECE" filter="url(#fcj355x1zconu)" height="75.6719" id="Drugs" style="stroke:#A80036;stroke-width:1.5;" width="97" x="35" y="504"/><ellipse cx="63.95" cy="520" fill="#ADD1B2" rx="11" ry="11" style="stroke:#A80036;stroke-width:1.0;"/><path d="M62.8094,520.7969 L62.8094,523.2969 L67.1375,523.2969 L67.1375,522.375 Q67.1375,521.7656 67.3719,521.5 Q67.6219,521.2344 67.9969,521.2344 Q68.3719,521.2344 68.6063,521.5 Q68.8406,521.7656 68.8406,522.375 L68.8406,525 L60.8406,525 Q60.2156,525 59.95,524.7656 Q59.7,524.5313 59.7,524.1406 Q59.7,523.7656 59.9656,523.5313 Q60.2313,523.2969 60.8406,523.2969 L61.1063,523.2969 L61.1063,516.6406 L60.8406,516.6406 Q60.2156,516.6406 59.95,516.4063 Q59.7,516.1719 59.7,515.7813 Q59.7,515.4063 59.95,515.1719 Q60.2156,514.9375 60.8406,514.9375 L68.4656,514.9375 L68.4656,517.5313 Q68.4656,518.1406 68.2313,518.4063 Q68.0125,518.6563 67.6219,518.6563 Q67.2469,518.6563 67.0125,518.4063 Q66.7781,518.1406 66.7781,517.5313 L66.7781,516.6406 L62.8094,516.6406 L62.8094,519.0938 L64.2938,519.0938 Q64.2938,518.4375 64.4188,518.25 Q64.6844,517.8438 65.1531,517.8438 Q65.5281,517.8438 65.7625,518.1094 Q65.9969,518.3594 65.9969,518.9688 L65.9969,520.9375 Q65.9969,521.4844 65.8719,521.6719 Q65.6063,522.0625 65.1531,522.0625 Q64.6844,522.0625 64.4188,521.6563 Q64.2938,521.4688 64.2938,520.7969 L62.8094,520.7969 Z " fill="#000000"/><text fill="#000000" font-family="sans-serif" font-size="12" lengthAdjust="spacing" textLength="34" x="81.05" y="524.9102">Drugs</text><line style="stroke:#A80036;stroke-width:1.5;" x1="36" x2="131" y1="536" y2="536"/><text fill="#000000" font-family="sans-serif" font-size="11" lengthAdjust="spacing" textLength="85" x="41" y="551.4189">drugID: String key</text><text fill="#000000" font-family="sans-serif" font-size="11" lengthAdjust="spacing" textLength="53" x="41" y="565.2549">description</text><line style="stroke:#A80036;stroke-width:1.5;" x1="36" x2="131" y1="571.6719" y2="571.6719"/><!--MD5=[26cc7b1c5d218d424f007ff680ae068b]
class patientCoe--><rect codeLine="152" fill="#FEFECE" filter="url(#fcj355x1zconu)" height="48" id="patientCoe" style="stroke:#A80036;stroke-width:1.5;" width="92" x="783.5" y="7"/><ellipse cx="798.5" cy="23" fill="#ADD1B2" rx="11" ry="11" style="stroke:#A80036;stroke-width:1.0;"/><path d="M801.2656,18.875 Q801.4219,18.6563 801.6094,18.5469 Q801.7969,18.4375 802.0156,18.4375 Q802.3906,18.4375 802.625,18.7031 Q802.8594,18.9531 802.8594,19.5625 L802.8594,21.0156 Q802.8594,21.625 802.625,21.8906 Q802.3906,22.1563 802.0156,22.1563 Q801.6719,22.1563 801.4688,21.9531 Q801.2656,21.7656 801.1563,21.25 Q801.1094,20.8906 800.9219,20.7031 Q800.5938,20.3281 799.9844,20.1094 Q799.375,19.8906 798.75,19.8906 Q797.9844,19.8906 797.3438,20.2188 Q796.7188,20.5469 796.2188,21.2969 Q795.7344,22.0469 795.7344,23.0781 L795.7344,24.1719 Q795.7344,25.4063 796.625,26.2344 Q797.5156,27.0469 799.1094,27.0469 Q800.0469,27.0469 800.7031,26.7969 Q801.0938,26.6406 801.5156,26.2031 Q801.7813,25.9375 801.9219,25.8594 Q802.0781,25.7813 802.2813,25.7813 Q802.6094,25.7813 802.8594,26.0469 Q803.125,26.2969 803.125,26.6406 Q803.125,26.9844 802.7813,27.3906 Q802.2813,27.9688 801.4844,28.2969 Q800.4063,28.75 799.1094,28.75 Q797.5938,28.75 796.3906,28.125 Q795.4063,27.625 794.7188,26.5625 Q794.0313,25.4844 794.0313,24.2031 L794.0313,23.0469 Q794.0313,21.7188 794.6406,20.5781 Q795.2656,19.4219 796.3594,18.8125 Q797.4531,18.1875 798.6875,18.1875 Q799.4219,18.1875 800.0625,18.3594 Q800.7188,18.5156 801.2656,18.875 Z " fill="#000000"/><text fill="#000000" font-family="sans-serif" font-size="12" lengthAdjust="spacing" textLength="60" x="812.5" y="27.9102">patientCoe</text><line style="stroke:#A80036;stroke-width:1.5;" x1="784.5" x2="874.5" y1="39" y2="39"/><line style="stroke:#A80036;stroke-width:1.5;" x1="784.5" x2="874.5" y1="47" y2="47"/><!--MD5=[5d4c9bcda40f002d35cd76ddfb15cf67]
link PreviousCancer to Drugs--><path codeLine="128" d="M184.5,437.05 C164.53,457.61 139.75,483.11 119.73,503.71 " fill="none" id="PreviousCancer-Drugs" style="stroke:#A80036;stroke-width:1.0;"/><text fill="#000000" font-family="sans-serif" font-size="13" lengthAdjust="spacing" textLength="7" x="170.9578" y="458.2284">1</text><text fill="#000000" font-family="sans-serif" font-size="13" lengthAdjust="spacing" textLength="9" x="116.3819" y="493.0202">N</text><!--MD5=[2e29cae220c6d36fd339b8cb82c1790d]
link PreviousGeneticSyndrome to Drugs--><path codeLine="129" d="M451.47,413.08 C370.31,427.08 248.36,453.37 149.5,497 C143.7,499.56 137.86,502.62 132.17,505.91 " fill="none" id="PreviousGeneticSyndrome-Drugs" style="stroke:#A80036;stroke-width:1.0;"/><text fill="#000000" font-family="sans-serif" font-size="13" lengthAdjust="spacing" textLength="7" x="436.5182" y="411.1268">1</text><text fill="#000000" font-family="sans-serif" font-size="13" lengthAdjust="spacing" textLength="9" x="139.9793" y="496.9793">N</text><!--MD5=[fe13e624da3fbf679b16dfde2429b06c]
link Patient to CancerUnderStudy--><path codeLine="130" d="M724.52,291.07 C741.11,315.38 758.46,340.8 772.08,360.76 " fill="none" id="Patient-CancerUnderStudy" style="stroke:#A80036;stroke-width:1.0;"/><text fill="#000000" font-family="sans-serif" font-size="13" lengthAdjust="spacing" textLength="7" x="732.518" y="316.8021">1</text><text fill="#000000" font-family="sans-serif" font-size="13" lengthAdjust="spacing" textLength="9" x="757.7505" y="350.0792">N</text><!--MD5=[aa433c9810a68cb645cecea6fbc10700]
link CancerUnderStudy to Event--><path codeLine="131" d="M729.24,420.65 C663.26,440.62 561.19,471.5 476.97,496.98 " fill="none" id="CancerUnderStudy-Event" style="stroke:#A80036;stroke-width:1.0;"/><text fill="#000000" font-family="sans-serif" font-size="13" lengthAdjust="spacing" textLength="7" x="714.3913" y="419.6753">1</text><text fill="#000000" font-family="sans-serif" font-size="13" lengthAdjust="spacing" textLength="9" x="490.4371" y="486.0923">N</text><!--MD5=[01e20921d103e57395092b09bd6af78a]
link CancerUnderStudy to Staging--><path codeLine="132" d="M741.54,437.05 C709.61,458.18 669.8,484.53 638.25,505.42 " fill="none" id="CancerUnderStudy-Staging" style="stroke:#A80036;stroke-width:1.0;"/><text fill="#000000" font-family="sans-serif" font-size="13" lengthAdjust="spacing" textLength="7" x="724.6919" y="458.2284">1</text><text fill="#000000" font-family="sans-serif" font-size="13" lengthAdjust="spacing" textLength="7" x="645.943" y="496.9703">1</text><!--MD5=[a0d4659de3a658e8aa854b5bb8d2e58c]
link CancerUnderStudy to Treatment--><path codeLine="133" d="M778.85,437.05 C768.49,457.61 755.65,483.11 745.28,503.71 " fill="none" id="CancerUnderStudy-Treatment" style="stroke:#A80036;stroke-width:1.0;"/><text fill="#000000" font-family="sans-serif" font-size="13" lengthAdjust="spacing" textLength="7" x="768.1814" y="458.2284">1</text><text fill="#000000" font-family="sans-serif" font-size="13" lengthAdjust="spacing" textLength="9" x="738.8236" y="493.0202">N</text><!--MD5=[da018b3009c00c741460107d263f303d]
link Treatment to Surgery--><path codeLine="134" d="M685.87,580.35 C663.89,600.56 636.6,625.64 613.56,646.82 " fill="none" id="Treatment-Surgery" style="stroke:#A80036;stroke-width:1.0;"/><text fill="#000000" font-family="sans-serif" font-size="13" lengthAdjust="spacing" textLength="7" x="671.8368" y="601.2863">1</text><text fill="#000000" font-family="sans-serif" font-size="13" lengthAdjust="spacing" textLength="24" x="595.0817" y="636.2365">0..N</text><!--MD5=[3984de4bcd9222d33fe4a08177d13b9f]
link Treatment to RadioTherapy--><path codeLine="135" d="M770.41,580.35 C794.17,600.56 823.66,625.64 848.56,646.82 " fill="none" id="Treatment-RadioTherapy" style="stroke:#A80036;stroke-width:1.0;"/><text fill="#000000" font-family="sans-serif" font-size="13" lengthAdjust="spacing" textLength="7" x="769.8503" y="601.2863">1</text><text fill="#000000" font-family="sans-serif" font-size="13" lengthAdjust="spacing" textLength="24" x="814.7692" y="636.2365">0..N</text><!--MD5=[60f732a69c1554145daaa4b184516656]
link Treatment to SystemicTreatment--><path codeLine="136" d="M726.5,580.35 C726.5,600.56 726.5,625.64 726.5,646.82 " fill="none" id="Treatment-SystemicTreatment" style="stroke:#A80036;stroke-width:1.0;"/><text fill="#000000" font-family="sans-serif" font-size="13" lengthAdjust="spacing" textLength="7" x="718.9422" y="601.2863">1</text><text fill="#000000" font-family="sans-serif" font-size="13" lengthAdjust="spacing" textLength="24" x="700.6625" y="636.2365">0..N</text><!--MD5=[5dddf993d61ac5d708fa64f9909217f2]
link Patient to PreviousGeneticSyndrome--><path codeLine="137" d="M612.36,291.9 C596.1,315.9 579.16,340.92 565.81,360.63 " fill="none" id="Patient-PreviousGeneticSyndrome" style="stroke:#A80036;stroke-width:1.0;"/><text fill="#000000" font-family="sans-serif" font-size="13" lengthAdjust="spacing" textLength="7" x="597.3459" y="299.5937">1</text><text fill="#000000" font-family="sans-serif" font-size="13" lengthAdjust="spacing" textLength="9" x="560.3867" y="350.2137">N</text><!--MD5=[75f2f0c43ddf67350a525285085ed9c4]
link Treatment to OtherTreatment--><path codeLine="138" d="M780.39,578.29 C786.07,581.43 791.83,584.4 797.5,587 C877.98,623.94 906.37,611.5 987.5,647 C993.42,649.59 999.48,652.52 1005.46,655.6 " fill="none" id="Treatment-OtherTreatment" style="stroke:#A80036;stroke-width:1.0;"/><text fill="#000000" font-family="sans-serif" font-size="13" lengthAdjust="spacing" textLength="7" x="788.1018" y="579.6323">1</text><text fill="#000000" font-family="sans-serif" font-size="13" lengthAdjust="spacing" textLength="24" x="973.69" y="648.276">0..N</text><!--MD5=[505fd24427e1edff1fca6080e921964a]
link Treatment to TreatmentResponse--><path codeLine="139" d="M780.06,579.08 C785.8,582.06 791.67,584.78 797.5,587 C942.12,642.09 993.2,599.53 1140.5,647 C1146.76,649.02 1153.14,651.39 1159.47,653.97 " fill="none" id="Treatment-TreatmentResponse" style="stroke:#A80036;stroke-width:1.0;"/><text fill="#000000" font-family="sans-serif" font-size="13" lengthAdjust="spacing" textLength="7" x="782.6027" y="601.2333">1</text><text fill="#000000" font-family="sans-serif" font-size="13" lengthAdjust="spacing" textLength="24" x="1126.2792" y="646.4678">0..N</text><!--MD5=[efeaa2181069245fe711269ffa763d96]
link Treatment to PatientIncludedInClinicalTrial--><path codeLine="140" d="M780.33,579.65 C785.97,582.47 791.75,585 797.5,587 C1018.93,663.93 1093.87,591.01 1321.5,647 C1329.43,648.95 1337.56,651.31 1345.63,653.91 " fill="none" id="Treatment-PatientIncludedInClinicalTrial" style="stroke:#A80036;stroke-width:1.0;"/><text fill="#000000" font-family="sans-serif" font-size="13" lengthAdjust="spacing" textLength="7" x="788.0337" y="599.325">1</text><text fill="#000000" font-family="sans-serif" font-size="13" lengthAdjust="spacing" textLength="24" x="1307.3045" y="644.9715">0..N</text><!--MD5=[9793760bcb4f36a079eb26f1573eab13]
link Patient to PatientStatus--><path codeLine="141" d="M724.64,286.2 C730.02,291.53 735.66,296.55 741.5,301 C795.67,342.28 820.84,332.08 882.5,361 C888.48,363.8 894.69,366.83 900.85,369.89 " fill="none" id="Patient-PatientStatus" style="stroke:#A80036;stroke-width:1.0;"/><text fill="#000000" font-family="sans-serif" font-size="13" lengthAdjust="spacing" textLength="7" x="732.6541" y="293.1277">1</text><text fill="#000000" font-family="sans-serif" font-size="13" lengthAdjust="spacing" textLength="7" x="886.1705" y="362.4331">1</text><!--MD5=[25f97dcd7600eb25a7365e764313ea49]
link CancerUnderStudy to CUSSubsite--><path codeLine="142" d="M816.15,437.05 C826.51,457.61 839.35,483.11 849.72,503.71 " fill="none" id="CancerUnderStudy-CUSSubsite" style="stroke:#A80036;stroke-width:1.0;"/><text fill="#000000" font-family="sans-serif" font-size="13" lengthAdjust="spacing" textLength="7" x="811.6592" y="458.2284">1</text><text fill="#000000" font-family="sans-serif" font-size="13" lengthAdjust="spacing" textLength="7" x="838.7514" y="493.0202">1</text><!--MD5=[6388f3116d2d9e93a0bef83f45081f16]
link Patient to PreviousCancer--><path codeLine="143" d="M612.21,232.75 C529.37,267.69 374.93,332.85 286.74,370.05 " fill="none" id="Patient-PreviousCancer" style="stroke:#A80036;stroke-width:1.0;"/><text fill="#000000" font-family="sans-serif" font-size="13" lengthAdjust="spacing" textLength="7" x="597.5494" y="232.3907">1</text><text fill="#000000" font-family="sans-serif" font-size="13" lengthAdjust="spacing" textLength="9" x="294.4772" y="363.5409">N</text><!--MD5=[462e03529e37efde04e54f45a42d0512]
link Staging to MSite--><path codeLine="144" d="M543.87,580.35 C516.77,605.27 481.59,637.6 456.27,660.88 " fill="none" id="Staging-MSite" style="stroke:#A80036;stroke-width:1.0;"/><text fill="#000000" font-family="sans-serif" font-size="13" lengthAdjust="spacing" textLength="7" x="529.8368" y="601.2863">1</text><text fill="#000000" font-family="sans-serif" font-size="13" lengthAdjust="spacing" textLength="7" x="455.3069" y="650.3598">1</text><!--MD5=[1b8ee76fb2fdb5758c1d56b247d053f2]
link CancerUnderStudy to AdverseEvent--><path codeLine="145" d="M853.46,437.05 C885.39,458.18 925.2,484.53 956.75,505.42 " fill="none" id="CancerUnderStudy-AdverseEvent" style="stroke:#A80036;stroke-width:1.0;"/><text fill="#000000" font-family="sans-serif" font-size="13" lengthAdjust="spacing" textLength="7" x="855.1487" y="458.2284">1</text><text fill="#000000" font-family="sans-serif" font-size="13" lengthAdjust="spacing" textLength="24" x="925.1477" y="497.7998">0..N</text><!--MD5=[fcf85f630aa8314bdfe4dc0d19fd21b5]
link CancerUnderStudy to ImagingAvailable--><path codeLine="146" d="M865.76,430.19 C871.72,432.58 877.7,434.88 883.5,437 C969.87,468.55 996.66,461.54 1081.5,497 C1087.41,499.47 1093.44,502.24 1099.43,505.16 " fill="none" id="CancerUnderStudy-ImagingAvailable" style="stroke:#A80036;stroke-width:1.0;"/><text fill="#000000" font-family="sans-serif" font-size="13" lengthAdjust="spacing" textLength="7" x="873.6088" y="430.2587">1</text><text fill="#000000" font-family="sans-serif" font-size="13" lengthAdjust="spacing" textLength="24" x="1067.6884" y="498.066">0..N</text><!--MD5=[fb403acd0bebda8d7490274634b67650]
link CancerUnderStudy to TumourSpecimenAvailable--><path codeLine="147" d="M865.96,431.18 C871.83,433.32 877.73,435.3 883.5,437 C1038.7,482.63 1086.86,452.88 1242.5,497 C1249.71,499.04 1257.09,501.41 1264.44,503.98 " fill="none" id="CancerUnderStudy-TumourSpecimenAvailable" style="stroke:#A80036;stroke-width:1.0;"/><text fill="#000000" font-family="sans-serif" font-size="13" lengthAdjust="spacing" textLength="7" x="873.3809" y="448.8537">1</text><text fill="#000000" font-family="sans-serif" font-size="13" lengthAdjust="spacing" textLength="24" x="1228.4889" y="495.9078">0..N</text><!--MD5=[8d4a7204331074e3f184f566791e5974]
link CancerUnderStudy to TumourGeneticTest--><path codeLine="148" d="M865.85,431.57 C871.75,433.63 877.68,435.48 883.5,437 C1131.69,501.76 1211.11,425.71 1457.5,497 C1464.12,498.92 1470.85,501.31 1477.48,503.98 " fill="none" id="CancerUnderStudy-TumourGeneticTest" style="stroke:#A80036;stroke-width:1.0;"/><text fill="#000000" font-family="sans-serif" font-size="13" lengthAdjust="spacing" textLength="7" x="873.8466" y="454.5255">1</text><text fill="#000000" font-family="sans-serif" font-size="13" lengthAdjust="spacing" textLength="24" x="1444.1121" y="496.1933">0..N</text><!--MD5=[a17296d7b2b554fa1f33b9a64c316cfe]
link Staging to ClinicalStage--><path codeLine="149" d="M530.95,579.11 C525.21,582.09 519.33,584.8 513.5,587 C364.23,643.42 310.84,596.38 159.5,647 C153.51,649 147.43,651.38 141.41,653.98 " fill="none" id="Staging-ClinicalStage" style="stroke:#A80036;stroke-width:1.0;"/><text fill="#000000" font-family="sans-serif" font-size="13" lengthAdjust="spacing" textLength="7" x="515.9273" y="598.9965">1</text><text fill="#000000" font-family="sans-serif" font-size="13" lengthAdjust="spacing" textLength="7" x="146.1012" y="643.0528">1</text><!--MD5=[3d2ded6fec45a1ac85628e1e2671a122]
link Staging to PathologicalStage--><path codeLine="150" d="M530.84,577.73 C525.07,581.02 519.22,584.17 513.5,587 C446.15,620.27 424.9,618.27 355.5,647 C349.64,649.43 343.61,651.98 337.56,654.59 " fill="none" id="Staging-PathologicalStage" style="stroke:#A80036;stroke-width:1.0;"/><text fill="#000000" font-family="sans-serif" font-size="13" lengthAdjust="spacing" textLength="7" x="516.1591" y="578.997">1</text><text fill="#000000" font-family="sans-serif" font-size="13" lengthAdjust="spacing" textLength="7" x="345.5243" y="647.7894">1</text><!--MD5=[36ba692ef1cee9e91fb6d2f8055674dd]
link patientCoe to Patient--><path codeLine="153" d="M803.14,55.04 C785.14,71.2 761.1,93.65 741.5,115 C735.85,121.16 730.13,127.7 724.52,134.35 " fill="none" id="patientCoe-Patient" style="stroke:#A80036;stroke-width:1.0;"/><text fill="#000000" font-family="sans-serif" font-size="13" lengthAdjust="spacing" textLength="9" x="732.6524" y="120.8729">N</text><!--MD5=[1f771cd0d7e4f0c27981733af88078bf]
link patientCoe to CenterOfExcellence--><path codeLine="154" d="M829.5,55.24 C829.5,84.53 829.5,135.22 829.5,169.89 " fill="none" id="patientCoe-CenterOfExcellence" style="stroke:#A80036;stroke-width:1.0;"/><text fill="#000000" font-family="sans-serif" font-size="13" lengthAdjust="spacing" textLength="9" x="819.6984" y="159.2323">N</text><!--MD5=[74ab1dc506c69b741bd911c7837d8053]
link patientCoe to PreliminaryPatientData--><path codeLine="155" d="M853.93,55.24 C877.2,77.37 913.31,111.72 945.31,142.14 " fill="none" id="patientCoe-PreliminaryPatientData" style="stroke:#A80036;stroke-width:1.0;"/><text fill="#000000" font-family="sans-serif" font-size="13" lengthAdjust="spacing" textLength="7" x="930.4689" y="131.5751">1</text></g></svg>